<mxfile host="app.diagrams.net" modified="2024-01-16T17:14:03.222Z" agent="Mozilla/5.0 (Windows NT 10.0; Win64; x64) AppleWebKit/537.36 (KHTML, like Gecko) Chrome/120.0.0.0 Safari/537.36" version="21.7.2" etag="H_2Xc5pQG473kZPhXDaS" type="github">
  <diagram name="Page-1" id="aBGpRQvd_mfctn9YTNR6">
    <mxGraphModel>
      <root>
        <mxCell id="0" />
        <mxCell id="1" parent="0" />
      </root>
    </mxGraphModel>
  </diagram>
</mxfile>
